<?xml version="1.0" encoding="UTF-8" standalone="no"?>
<!-- Created with Inkscape (http://www.inkscape.org/) -->

<svg
   xmlns:dc="http://purl.org/dc/elements/1.1/"
   xmlns:cc="http://creativecommons.org/ns#"
   xmlns:rdf="http://www.w3.org/1999/02/22-rdf-syntax-ns#"
   xmlns:svg="http://www.w3.org/2000/svg"
   xmlns="http://www.w3.org/2000/svg"
   xmlns:sodipodi="http://sodipodi.sourceforge.net/DTD/sodipodi-0.dtd"
   xmlns:inkscape="http://www.inkscape.org/namespaces/inkscape"
   width="210mm"
   height="297mm"
   viewBox="0 0 744.09448819 1052.3622047"
   id="svg2"
   version="1.1"
   inkscape:version="0.91 r13725"
   sodipodi:docname="defaultappimage.svg">
  <defs
     id="defs4" />
  <sodipodi:namedview
     id="base"
     pagecolor="#ffffff"
     bordercolor="#666666"
     borderopacity="1.0"
     inkscape:pageopacity="0.0"
     inkscape:pageshadow="2"
     inkscape:zoom="0.98994949"
     inkscape:cx="114.45028"
     inkscape:cy="977.93166"
     inkscape:document-units="px"
     inkscape:current-layer="layer1"
     showgrid="false"
     inkscape:window-width="1920"
     inkscape:window-height="1016"
     inkscape:window-x="0"
     inkscape:window-y="27"
     inkscape:window-maximized="1" />
  <metadata
     id="metadata7">
    <rdf:RDF>
      <cc:Work
         rdf:about="">
        <dc:format>image/svg+xml</dc:format>
        <dc:type
           rdf:resource="http://purl.org/dc/dcmitype/StillImage" />
        <dc:title></dc:title>
      </cc:Work>
    </rdf:RDF>
  </metadata>
  <g
     inkscape:label="Layer 1"
     inkscape:groupmode="layer"
     id="layer1">
    <g
       id="g4181">
      <path
         inkscape:connector-curvature="0"
         id="rect3336"
         d="m 46.520565,30.142009 0,28.275046 A 20.691831,20.769418 0 0 1 57.623149,55.16944 20.691831,20.769418 0 0 1 78.313881,75.94017 20.691831,20.769418 0 0 1 57.623149,96.708837 20.691831,20.769418 0 0 1 46.520565,93.440628 l 0,32.558522 31.721113,0 a 20.691831,20.769418 0 0 1 -2.954703,-10.65102 20.691831,20.769418 0 0 1 20.692682,-20.768672 20.691831,20.769418 0 0 1 20.690743,20.768672 20.691831,20.769418 0 0 1 -2.95666,10.65102 l 29.70512,0 0,-39.372951 a 20.691831,20.769418 0 0 0 16.65485,8.486634 20.691831,20.769418 0 0 0 20.69073,-20.770728 20.691831,20.769418 0 0 0 -20.69073,-20.768671 20.691831,20.769418 0 0 0 -16.65485,8.482514 l 0,-31.913939 -96.898295,0 z"
         style="fill:#999999;stroke:#000000;stroke-width:4.10573006;stroke-linejoin:round;stroke-miterlimit:4;stroke-dasharray:none;stroke-opacity:1" />
      <rect
         y="29.077677"
         x="44.446712"
         height="43.436558"
         width="137.38074"
         id="rect4164"
         style="fill:#f9f9f9;fill-opacity:0.45762712;stroke:none;stroke-width:4;stroke-linejoin:round;stroke-miterlimit:4;stroke-dasharray:none;stroke-opacity:1" />
    </g>
  </g>
</svg>
